<svg id="Layer_1" data-name="Layer 1" xmlns="http://www.w3.org/2000/svg" viewBox="0 0 1200 1200"><defs><style>.cls-1{fill:#3e00ff;}.cls-2{fill:#170055;}</style></defs><path class="cls-1" d="M514.12,382.77c-103.57,0-189.29,71.54-189.29,214.61v69.71L409.65,731V597.38c0-99.8,47.32-136.89,104.47-136.89,56.25,0,103.57,37.09,103.57,136.89V887.77l.15,126,23,0,61.66-76.38H409.65V837.21L324.83,773.3v240.93l376.8-.54q.45-38.16.88-76.3v-340C702.51,454.31,615.91,382.77,514.12,382.77Z"/><path class="cls-2" d="M756.15,561.14v-.47a227.84,227.84,0,0,0-33-118.27,233.89,233.89,0,0,0-20.62-28.95,245.7,245.7,0,0,0-84.81-65.36,254.53,254.53,0,0,0-108.4-24V270.64c1.76,0,3.52,0,5.28,0A309.42,309.42,0,0,1,689.2,324.12c4.52,3.09,9,6.3,13.31,9.61A303.78,303.78,0,0,1,791.72,442.4a295.5,295.5,0,0,1,29.66,118.74Z"/><path class="cls-2" d="M879.58,561.14v-.47A340.73,340.73,0,0,0,858.51,442.4,352.13,352.13,0,0,0,785.3,324.12a368.63,368.63,0,0,0-82.79-66.2A375.38,375.38,0,0,0,617.7,221.3a384.52,384.52,0,0,0-108.4-15.46V151.77a443.77,443.77,0,0,1,108.4,13.36,434.15,434.15,0,0,1,84.81,31q9.48,4.63,18.68,9.7A422.76,422.76,0,0,1,856.92,324.12,401,401,0,0,1,917.37,442.4a393.7,393.7,0,0,1,18.22,118.74Z"/></svg>