<svg id="Layer_1" data-name="Layer 1" xmlns="http://www.w3.org/2000/svg" viewBox="0 0 1200 1200"><defs><style>.cls-1{fill:#3e00ff;}.cls-2{fill:#f2f2ff;}</style></defs><path class="cls-1" d="M594.19,343.77c-103.57,0-189.29,71.54-189.29,214.61v69.71L489.72,692V558.38c0-99.8,47.32-136.89,104.47-136.89,56.25,0,103.57,37.09,103.57,136.89V848.77l.15,126,23,0,61.66-76.38H489.72V798.21L404.9,734.3V975.23l376.8-.54q.43-38.16.88-76.3v-340C782.58,415.31,696,343.77,594.19,343.77Z"/><path class="cls-2" d="M836.22,522.14v-.47a227.84,227.84,0,0,0-33-118.27,235,235,0,0,0-20.62-28.95,245.79,245.79,0,0,0-84.81-65.36,254.53,254.53,0,0,0-108.4-24V231.64c1.76,0,3.52,0,5.28,0a309.35,309.35,0,0,1,174.61,53.52c4.52,3.09,9,6.3,13.32,9.61A303.78,303.78,0,0,1,871.79,403.4a295.66,295.66,0,0,1,29.66,118.74Z"/><path class="cls-2" d="M959.65,522.14v-.47A340.73,340.73,0,0,0,938.58,403.4a352.13,352.13,0,0,0-73.21-118.28,368.63,368.63,0,0,0-82.79-66.2,375.58,375.58,0,0,0-84.81-36.62,384.57,384.57,0,0,0-108.4-15.46V112.77a443.77,443.77,0,0,1,108.4,13.36,434.39,434.39,0,0,1,84.81,31q9.48,4.63,18.68,9.7A422.86,422.86,0,0,1,937,285.12,401,401,0,0,1,997.43,403.4a393.4,393.4,0,0,1,18.23,118.74Z"/></svg>