<svg id="Layer_1" data-name="Layer 1" xmlns="http://www.w3.org/2000/svg" viewBox="0 0 1200 1200"><defs><style>.cls-1{fill:#f2f2ff;}.cls-2{fill:#170055;}.cls-3,.cls-38{fill:#3e00ff;}.cls-4{fill:#ff004d;}.cls-5{font-size:22.81px;font-family:NeueHaasDisplay-XThin, Neue Haas Grotesk Display Pro;font-weight:200;}.cls-6{letter-spacing:-0.01em;}.cls-7{letter-spacing:0.01em;}.cls-8{letter-spacing:-0.02em;}.cls-9{letter-spacing:0em;}.cls-10{letter-spacing:-0.03em;}.cls-11{letter-spacing:0.01em;}.cls-12,.cls-17{font-size:35px;}.cls-12{font-family:ArchivGrotesk-SemiBold, Archiv Grotesk;font-weight:600;}.cls-13{letter-spacing:-0.06em;}.cls-14{letter-spacing:-0.05em;}.cls-15{letter-spacing:-0.02em;}.cls-16{letter-spacing:-0.06em;}.cls-17,.cls-38{font-family:Anybody-Regular, Anybody;}.cls-18{letter-spacing:-0.05em;}.cls-19{letter-spacing:0em;}.cls-20{letter-spacing:-0.02em;}.cls-21{letter-spacing:-0.05em;}.cls-22{letter-spacing:-0.06em;}.cls-23{letter-spacing:-0.06em;}.cls-24{letter-spacing:-0.03em;}.cls-25,.cls-33{font-size:30px;}.cls-25{font-family:ArchivGrotesk-Bold, Archiv Grotesk;font-weight:700;}.cls-26{letter-spacing:-0.04em;}.cls-27{letter-spacing:-0.06em;}.cls-28{letter-spacing:0.01em;}.cls-29{letter-spacing:0em;}.cls-30{letter-spacing:-0.02em;}.cls-31{letter-spacing:-0.09em;}.cls-32{letter-spacing:-0.03em;}.cls-33{font-family:Anybody-Medium, Anybody;font-weight:500;}.cls-34{letter-spacing:0em;}.cls-35{letter-spacing:-0.01em;}.cls-36{letter-spacing:-0.04em;}.cls-37{letter-spacing:-0.03em;}.cls-38{font-size:60px;}.cls-39{letter-spacing:-0.01em;}.cls-40{letter-spacing:-0.1em;}.cls-41{letter-spacing:0em;}.cls-42{letter-spacing:-0.01em;}.cls-43{letter-spacing:0em;}.cls-44{letter-spacing:-0.05em;}.cls-45{letter-spacing:-0.03em;}</style></defs><rect class="cls-1" x="74.97" y="195.61" width="487.47" height="364.84"/><path class="cls-2" d="M348,509.59h9.32l15.26,35.25h-7.86L361,536.13H344.39l-3.72,8.71h-7.91Zm10.17,19.89-5.44-12.79h-.05l-5.44,12.79Z"/><path class="cls-2" d="M372.59,527.16c0-10.57,7.56-18,18.18-18,6.35,0,11.64,2.67,14.86,7l-5.74,5.69a10,10,0,0,0-9.12-5.23c-6,0-10.32,4.38-10.32,10.52s4.28,10.58,10.32,10.58a10,10,0,0,0,9.17-5.29l5.69,5.69c-3.22,4.43-8.46,7.1-14.86,7.1C380.15,545.24,372.59,537.74,372.59,527.16Z"/><path class="cls-2" d="M410.67,527.16c0-10.57,7.55-18,18.18-18,6.34,0,11.63,2.67,14.85,7L438,521.87a9.94,9.94,0,0,0-9.11-5.23c-6.05,0-10.33,4.38-10.33,10.52s4.28,10.58,10.33,10.58a10,10,0,0,0,9.16-5.29l5.69,5.69c-3.22,4.43-8.46,7.1-14.85,7.1C418.22,545.24,410.67,537.74,410.67,527.16Z"/><path class="cls-2" d="M449.74,509.59h13.8l9.87,28.55h1.06l9.92-28.55h13.8v35.2h-7.5V516.28h-.91l-9.92,28.56H468.07l-9.92-28.56h-.9v28.56h-7.51Z"/><path class="cls-2" d="M519.49,509.59h9.32l15.26,35.25h-7.86l-3.73-8.71H515.86l-3.72,8.71h-7.91Zm10.17,19.89-5.44-12.79h-.05l-5.43,12.79Z"/><path class="cls-3" d="M300.23,286.65l28.15,20.93V493.92H300.54q0-68.37.11-136.74l-66.31-34.81L234,493.92H206.17V390.46l-66.53-54.07V493.92H111.8V319L93.33,304.59l16.88-17.94,96,71.57V307.58l94.48,49.6Z"/><path class="cls-3" d="M405.72,286.65c-34,0-62.13,23.48-62.13,70.44V380l27.84,21V357.09c0-32.76,15.54-44.93,34.29-44.93,18.47,0,34,12.17,34,44.93v95.32q0,20.68,0,41.37h7.55l20.24-25.07H371.43V435.81l-27.84-21v79.09l123.68-.18q.15-12.53.29-25V357.09C467.56,310.13,439.13,286.65,405.72,286.65Z"/><path class="cls-2" d="M219.73,286.63,203,308.87l140.62,106V380Z"/><path class="cls-2" d="M485.17,345.2V345a74.77,74.77,0,0,0-10.84-38.82,76.17,76.17,0,0,0-6.77-9.5,80.59,80.59,0,0,0-27.84-21.45,83.38,83.38,0,0,0-35.58-7.87V249.84h1.74a102,102,0,0,1,33.84,5.73,101,101,0,0,1,23.47,11.84c1.48,1,2.95,2.06,4.37,3.15a99.81,99.81,0,0,1,29.28,35.67,97.16,97.16,0,0,1,9.74,39Z"/><path class="cls-2" d="M525.68,345.2V345a111.87,111.87,0,0,0-6.91-38.82,115.62,115.62,0,0,0-24-38.82,121.35,121.35,0,0,0-27.18-21.73,123.22,123.22,0,0,0-27.84-12,126.28,126.28,0,0,0-35.58-5.08V210.83a145.58,145.58,0,0,1,35.58,4.38,142.07,142.07,0,0,1,27.84,10.18c2.08,1,4.12,2.08,6.13,3.18a138.71,138.71,0,0,1,44.55,38.83,131.55,131.55,0,0,1,19.84,38.82,129,129,0,0,1,6,39Z"/><rect x="637.57" y="195.61" width="487.47" height="364.84"/><path class="cls-1" d="M910.62,508.59h9.32l15.26,35.25h-7.86l-3.73-8.71H907l-3.73,8.71h-7.91Zm10.17,19.89-5.44-12.79h-.05l-5.43,12.79Z"/><path class="cls-1" d="M935.2,526.16c0-10.57,7.55-18,18.18-18,6.34,0,11.63,2.67,14.85,7l-5.74,5.69a9.94,9.94,0,0,0-9.11-5.23c-6,0-10.33,4.38-10.33,10.52s4.28,10.58,10.33,10.58a10,10,0,0,0,9.16-5.29l5.69,5.69c-3.22,4.43-8.46,7.1-14.85,7.1C942.75,544.24,935.2,536.74,935.2,526.16Z"/><path class="cls-1" d="M973.27,526.16c0-10.57,7.55-18,18.18-18,6.34,0,11.63,2.67,14.85,7l-5.74,5.69a9.94,9.94,0,0,0-9.11-5.23c-6.05,0-10.33,4.38-10.33,10.52s4.28,10.58,10.33,10.58a10,10,0,0,0,9.16-5.29l5.69,5.69c-3.22,4.43-8.46,7.1-14.85,7.1C980.82,544.24,973.27,536.74,973.27,526.16Z"/><path class="cls-1" d="M1012.34,508.59h13.8l9.87,28.55h1.06l9.92-28.55h13.8v35.2h-7.5V515.28h-.91l-9.92,28.56h-11.78l-9.93-28.56h-.9v28.56h-7.51Z"/><path class="cls-1" d="M1082.09,508.59h9.32l15.26,35.25h-7.86l-3.73-8.71h-16.61l-3.73,8.71h-7.91Zm10.17,19.89-5.43-12.79h0l-5.44,12.79Z"/><path class="cls-3" d="M862.83,286.65,891,307.58V493.92H863.14q0-68.37.11-136.74l-66.31-34.81-.33,171.55H768.77V390.46l-66.53-54.07V493.92H674.4V319l-18.47-14.36,16.88-17.94,96,71.57V307.58l94.48,49.6Z"/><path class="cls-3" d="M968.32,286.65c-34,0-62.13,23.48-62.13,70.44V380L934,401V357.09c0-32.76,15.54-44.93,34.29-44.93,18.47,0,34,12.17,34,44.93v95.32q0,20.68,0,41.37h7.55l20.24-25.07H934V435.81l-27.84-21v79.09l123.68-.18q.15-12.53.29-25V357.09C1030.16,310.13,1001.74,286.65,968.32,286.65Z"/><path class="cls-1" d="M782.33,286.63l-16.76,22.24,140.62,106V380Z"/><path class="cls-1" d="M1047.77,345.2V345a74.77,74.77,0,0,0-10.84-38.82,76.17,76.17,0,0,0-6.77-9.5,80.59,80.59,0,0,0-27.84-21.45,83.38,83.38,0,0,0-35.58-7.87V249.84h1.74a102,102,0,0,1,33.84,5.73,101,101,0,0,1,23.47,11.84q2.24,1.52,4.37,3.15a99.81,99.81,0,0,1,29.28,35.67,97,97,0,0,1,9.74,39Z"/><path class="cls-1" d="M1088.28,345.2V345a111.87,111.87,0,0,0-6.91-38.82,115.62,115.62,0,0,0-24-38.82,121.35,121.35,0,0,0-27.18-21.73,123.22,123.22,0,0,0-27.84-12,126.23,126.23,0,0,0-35.58-5.08V210.83a145.58,145.58,0,0,1,35.58,4.38,142.07,142.07,0,0,1,27.84,10.18c2.08,1,4.12,2.08,6.13,3.18a138.71,138.71,0,0,1,44.55,38.83,131.57,131.57,0,0,1,19.85,38.82,129.32,129.32,0,0,1,6,39Z"/><rect x="936.98" y="363.24" width="14.79" height="14.79"/><rect x="637.57" y="288.91" width="18.37" height="15.21"/><rect class="cls-3" x="220.82" y="614.95" width="76.03" height="76.03" rx="38.01"/><rect class="cls-2" x="673.67" y="617.8" width="76.03" height="76.03" rx="38.01"/><rect class="cls-1" x="433.86" y="617.86" width="76.03" height="76.03" rx="38.01"/><rect class="cls-4" x="905.41" y="617.8" width="76.03" height="76.03" rx="38.01"/><text class="cls-5" transform="translate(177.78 720.34)">#3e00ff</text><text class="cls-5" transform="translate(266.76 720.34)"><tspan class="cls-6">6</tspan><tspan class="cls-7" x="12.04" y="0">2</tspan><tspan x="23.88" y="0">, </tspan><tspan class="cls-8" x="30.4" y="0">0</tspan><tspan class="cls-9" x="43.06" y="0">, 255</tspan></text><text class="cls-5" transform="translate(182.91 751.89)"><tspan class="cls-8">7</tspan><tspan x="10.7" y="0">6%, 100%, 0%, 0%</tspan></text><text class="cls-5" transform="translate(622.71 720.34)"><tspan class="cls-7">#</tspan><tspan x="12.43" y="0">1</tspan><tspan class="cls-8" x="19.3" y="0">7</tspan><tspan x="29.99" y="0">0055</tspan></text><text class="cls-5" transform="translate(720.34 720.34)"><tspan class="cls-6">6</tspan><tspan class="cls-7" x="12.04" y="0">2</tspan><tspan x="23.88" y="0">, </tspan><tspan class="cls-8" x="30.4" y="0">0</tspan><tspan class="cls-9" x="43.06" y="0">, 255</tspan></text><text class="cls-5" transform="translate(628.32 751.89)"><tspan class="cls-8">7</tspan><tspan x="10.7" y="0">6%, 100%, 0%, 0%</tspan></text><text class="cls-5" transform="translate(374.45 720.34)">#F2F2FF</text><text class="cls-5" transform="translate(481.16 720.34)"><tspan class="cls-10">2</tspan><tspan class="cls-9" x="10.92" y="0">4</tspan><tspan class="cls-11" x="23.11" y="0">2</tspan><tspan class="cls-9" x="34.94" y="0">, </tspan><tspan class="cls-10" x="41.47" y="0">2</tspan><tspan x="52.39" y="0">4</tspan><tspan class="cls-7" x="64.57" y="0">2</tspan><tspan x="76.41" y="0">, 255</tspan></text><text class="cls-5" transform="translate(410.67 754.8)"><tspan class="cls-6">5</tspan><tspan x="11.27" y="0">%, </tspan><tspan class="cls-6" x="34.05" y="0">5</tspan><tspan x="45.32" y="0">%, 0%, 0%</tspan></text><text class="cls-5" transform="translate(844.23 720.34)">#FF004D</text><text class="cls-5" transform="translate(953.01 720.34)">255, <tspan class="cls-8" x="41.12" y="0">0</tspan><tspan x="53.78" y="0">, </tspan><tspan class="cls-7" x="60.31" y="0">7</tspan><tspan x="71.69" y="0">7</tspan></text><text class="cls-5" transform="translate(850.13 751.89)">0%, 100%, <tspan class="cls-8" x="91.78" y="0">7</tspan><tspan x="102.48" y="0">0%, 0%</tspan></text><text class="cls-12" transform="translate(127.22 875.43)">A, B, C, D, E, <tspan class="cls-13" x="235.65" y="0">F</tspan><tspan x="253.33" y="0">, G, H, I, J, </tspan><tspan x="20.14" y="42">K, L, M, N, Ñ, O, </tspan><tspan class="cls-14" x="312.74" y="42">P</tspan><tspan x="330.73" y="42">, Q, R,</tspan><tspan x="54" y="84">S, </tspan><tspan class="cls-13" x="99.05" y="84">T</tspan><tspan x="118.37" y="84">, U, </tspan><tspan class="cls-15" x="186.79" y="84">V</tspan><tspan x="209.54" y="84">, W, X, </tspan><tspan class="cls-16" x="335.57" y="84">Y</tspan><tspan x="355.59" y="84">, Z</tspan></text><text class="cls-17" transform="translate(697.82 875.43)">A, B, C, D, E, <tspan class="cls-18" x="193.98" y="0">F</tspan><tspan class="cls-19" x="209.98" y="0">, G, H, I, </tspan><tspan class="cls-20" x="332.74" y="0">J</tspan><tspan x="352.71" y="0">, </tspan><tspan x="12.23" y="42">K, L, M, N, Ñ, O, </tspan><tspan class="cls-21" x="252.2" y="42">P</tspan><tspan x="270.61" y="42">, Q, R,</tspan><tspan x="37.27" y="84">S, </tspan><tspan class="cls-22" x="76" y="84">T</tspan><tspan class="cls-19" x="94.45" y="84">, U, </tspan><tspan class="cls-23" x="151.83" y="84">V</tspan><tspan x="171.55" y="84">, </tspan><tspan class="cls-24" x="188.96" y="84">W</tspan><tspan x="219.64" y="84">, X, </tspan><tspan class="cls-22" x="276.18" y="84">Y</tspan><tspan x="296.18" y="84">, Z</tspan></text><text class="cls-25" transform="translate(210.81 1026.85)"><tspan class="cls-26">A</tspan><tspan class="cls-27" x="25.53" y="0">R</tspan><tspan x="44.22" y="0">C</tspan><tspan class="cls-28" x="66.9" y="0">H</tspan><tspan class="cls-14" x="89.43" y="0">I</tspan><tspan class="cls-29" x="106.29" y="0">V </tspan><tspan class="cls-30" x="142.98" y="0">G</tspan><tspan class="cls-29" x="166.74" y="0">R</tspan><tspan class="cls-31" x="187.23" y="0">O</tspan><tspan class="cls-29" x="210.42" y="0">TE</tspan><tspan class="cls-32" x="248.01" y="0">S</tspan><tspan x="267.12" y="0">K</tspan></text><text class="cls-33" transform="translate(814.69 1026.85)"><tspan class="cls-34">A</tspan><tspan class="cls-35" x="20.33" y="0">N</tspan><tspan x="41.49" y="0">YBO</tspan><tspan class="cls-36" x="100.29" y="0">D</tspan><tspan class="cls-37" x="117.75" y="0">Y</tspan></text><text class="cls-38" transform="translate(112.47 132)"><tspan class="cls-39">M</tspan><tspan class="cls-40" x="47.46" y="0">T</tspan><tspan class="cls-41" x="76.62" y="0">A DESIGN: </tspan><tspan class="cls-42" x="358.79" y="0">M</tspan><tspan class="cls-43" x="405.9" y="0">A</tspan><tspan class="cls-44" x="445.41" y="0">P</tspan><tspan class="cls-45" x="476.7" y="0">A</tspan><tspan x="514.58" y="0">CHE TEC </tspan><tspan class="cls-45" x="756.65" y="0">A</tspan><tspan x="794.54" y="0">CCESS</tspan></text></svg>