<svg id="Layer_1" data-name="Layer 1" xmlns="http://www.w3.org/2000/svg" viewBox="0 0 1200 1200"><defs><style>.cls-1{fill:#170055;}.cls-2{fill:#3e00ff;}</style></defs><path class="cls-1" d="M682.18,894.52h22.93l37.57,86.79H723.34l-9.18-21.45H673.25l-9.17,21.45H644.61Zm25,49L693.83,912h-.12l-13.39,31.49Z"/><path class="cls-1" d="M742.67,937.79c0-26,18.6-44.38,44.76-44.38,15.62,0,28.64,6.57,36.57,17.35l-14.13,14c-4.22-7.93-12.28-12.89-22.44-12.89-14.88,0-25.42,10.78-25.42,25.91s10.54,26,25.42,26c10.16,0,18.35-5,22.56-13l14,14c-7.93,10.91-20.83,17.48-36.57,17.48C761.27,982.3,742.67,963.83,742.67,937.79Z"/><path class="cls-1" d="M836.39,937.79c0-26,18.6-44.38,44.76-44.38,15.62,0,28.64,6.57,36.57,17.35l-14.13,14c-4.22-7.93-12.28-12.89-22.44-12.89-14.88,0-25.42,10.78-25.42,25.91s10.54,26,25.42,26c10.16,0,18.35-5,22.56-13l14,14c-7.93,10.91-20.82,17.48-36.57,17.48C855,982.3,836.39,963.83,836.39,937.79Z"/><path class="cls-1" d="M932.59,894.52h34l24.3,70.3h2.6l24.43-70.3h34v86.66h-18.48V911h-2.23l-24.42,70.3h-29L953.3,911h-2.24v70.3H932.59Z"/><path class="cls-1" d="M1104.29,894.52h22.94l37.56,86.79h-19.34l-9.17-21.45h-40.92l-9.17,21.45h-19.47Zm25,49L1115.94,912h-.12l-13.39,31.49Z"/><path class="cls-2" d="M564.53,345.72l69.3,51.52V856H565.29l.27-336.6L402.32,433.64,401.51,856H333V601.28L169.2,468.17V856H100.66V425.24L55.21,389.88l41.54-44.16L333,521.91V397.24L565.56,519.35Q565.05,432.53,564.53,345.72Z"/><path class="cls-2" d="M824.23,345.72c-83.69,0-153,57.8-153,173.41v56.32l68.54,51.65v-108c0-80.64,38.23-110.61,84.41-110.61,45.45,0,83.69,30,83.69,110.61V753.77L908,855.61l18.59,0,49.83-61.71H739.82v-81l-68.54-51.65V856l304.46-.44.72-61.64V519.13C976.46,403.52,906.48,345.72,824.23,345.72Z"/><path class="cls-1" d="M366.36,345.68l-41.25,54.74L671.28,661.27V575.45Z"/><path class="cls-1" d="M1019.8,489.85v-.38a184.16,184.16,0,0,0-26.68-95.57,190.81,190.81,0,0,0-16.66-23.39,198.57,198.57,0,0,0-68.53-52.81,205.56,205.56,0,0,0-87.59-19.38v-43.2c1.42,0,2.84,0,4.26,0a250.05,250.05,0,0,1,141.1,43.24c3.65,2.5,7.25,5.1,10.76,7.77a245.51,245.51,0,0,1,72.08,87.81,239.09,239.09,0,0,1,24,96Z"/><path class="cls-1" d="M1119.53,489.85v-.38a275.55,275.55,0,0,0-17-95.57,284.66,284.66,0,0,0-59.16-95.58,298.2,298.2,0,0,0-66.89-53.48,303.29,303.29,0,0,0-68.53-29.59,310.71,310.71,0,0,0-87.59-12.5V159.07a358.55,358.55,0,0,1,87.59,10.79,350.52,350.52,0,0,1,68.53,25.06q7.65,3.74,15.09,7.83a341.74,341.74,0,0,1,109.67,95.57,324,324,0,0,1,48.84,95.58,318,318,0,0,1,14.73,96Z"/></svg>