<svg id="Layer_1" data-name="Layer 1" xmlns="http://www.w3.org/2000/svg" viewBox="0 0 1200 1200"><defs><style>.cls-1{fill:#3e00ff;}.cls-2{fill:#f2f2ff;}</style></defs><path class="cls-1" d="M562.53,368l69.3,51.52V878.18H563.29l.27-336.6L400.32,455.87l-.81,422.31H331V623.51L167.2,490.4V878.18H98.66V447.47L53.21,412.12,94.75,368,331,544.14V419.47L563.56,541.58Q563.05,454.76,562.53,368Z"/><path class="cls-1" d="M822.23,368c-83.69,0-153,57.8-153,173.41v56.32l68.54,51.65v-108c0-80.64,38.23-110.61,84.41-110.61,45.45,0,83.69,30,83.69,110.61V776L906,877.84l18.59,0,49.83-61.71H737.82v-81L669.28,683.5V878.18l304.46-.44.72-61.64V541.36C974.46,425.75,904.48,368,822.23,368Z"/><path class="cls-2" d="M364.36,367.91l-41.25,54.74L669.28,683.5V597.68Z"/><path class="cls-2" d="M1017.8,512.08v-.38a184.16,184.16,0,0,0-26.68-95.57,190.81,190.81,0,0,0-16.66-23.39,198.57,198.57,0,0,0-68.53-52.81,205.55,205.55,0,0,0-87.59-19.37V277.35c1.42,0,2.84,0,4.26,0a249.94,249.94,0,0,1,141.1,43.25c3.65,2.49,7.25,5.09,10.76,7.76a245.51,245.51,0,0,1,72.08,87.81,239.09,239.09,0,0,1,24,96Z"/><path class="cls-2" d="M1117.53,512.08v-.38a275.55,275.55,0,0,0-17-95.57,284.52,284.52,0,0,0-59.16-95.57,298,298,0,0,0-66.89-53.49,303.29,303.29,0,0,0-68.53-29.59A310.71,310.71,0,0,0,818.34,225V181.3a358.55,358.55,0,0,1,87.59,10.79,350.52,350.52,0,0,1,68.53,25.06q7.65,3.73,15.09,7.83a341.65,341.65,0,0,1,109.67,95.58,323.8,323.8,0,0,1,48.84,95.57,318,318,0,0,1,14.73,96Z"/></svg>