<svg id="Layer_1" data-name="Layer 1" xmlns="http://www.w3.org/2000/svg" viewBox="0 0 1200 1200"><defs><style>.cls-1{fill:#3e00ff;}.cls-2{fill:#170055;}</style></defs><path class="cls-1" d="M562.53,366.72l69.3,51.52V877H563.29l.27-336.6L400.32,454.64,399.51,877H331V622.28L167.2,489.17V877H98.66V446.24L53.21,410.88l41.54-44.16L331,542.91V418.24L563.56,540.35Q563.05,453.53,562.53,366.72Z"/><path class="cls-1" d="M822.23,366.72c-83.69,0-153,57.8-153,173.41v56.32l68.54,51.65v-108c0-80.64,38.23-110.61,84.41-110.61,45.45,0,83.69,30,83.69,110.61V774.77L906,876.61l18.59,0,49.83-61.71H737.82v-81l-68.54-51.65V877l304.46-.44.72-61.64V540.13C974.46,424.52,904.48,366.72,822.23,366.72Z"/><path class="cls-2" d="M364.36,366.68l-41.25,54.74L669.28,682.27V596.45Z"/><path class="cls-2" d="M1017.8,510.85v-.38a184.16,184.16,0,0,0-26.68-95.57,190.81,190.81,0,0,0-16.66-23.39,198.57,198.57,0,0,0-68.53-52.81,205.56,205.56,0,0,0-87.59-19.38v-43.2c1.42,0,2.84,0,4.26,0a250.05,250.05,0,0,1,141.1,43.24c3.65,2.5,7.25,5.1,10.76,7.77a245.51,245.51,0,0,1,72.08,87.81,239.09,239.09,0,0,1,24,96Z"/><path class="cls-2" d="M1117.53,510.85v-.38a275.55,275.55,0,0,0-17-95.57,284.66,284.66,0,0,0-59.16-95.58,298.2,298.2,0,0,0-66.89-53.48,303.29,303.29,0,0,0-68.53-29.59,310.71,310.71,0,0,0-87.59-12.5V180.07a358.55,358.55,0,0,1,87.59,10.79,350.52,350.52,0,0,1,68.53,25.06q7.65,3.74,15.09,7.83a341.74,341.74,0,0,1,109.67,95.57,324,324,0,0,1,48.84,95.58,318,318,0,0,1,14.73,96Z"/></svg>