<svg xmlns="http://www.w3.org/2000/svg" viewBox="0 0 450.73 283.09"><defs><style>.cls-1{fill:#3e00ff;}.cls-2{fill:#170055;}</style></defs><g id="Layer_2" data-name="Layer 2"><g id="Layer_1-2" data-name="Layer 1"><path class="cls-1" d="M206.9,75.82l28.15,20.93V283.09H207.2l.12-136.74L141,111.54q-.17,85.77-.32,171.55H112.83V179.63L46.31,125.57V283.09H18.46v-175L0,93.76,16.87,75.82l96,71.58V96.75l94.49,49.6Z"/><path class="cls-1" d="M312.39,75.82c-34,0-62.13,23.48-62.13,70.44v22.88l27.84,21V146.26c0-32.75,15.53-44.93,34.29-44.93,18.47,0,34,12.18,34,44.93v95.32q0,20.68.05,41.37H354l20.24-25.07H278.1V225l-27.84-21v79.08l123.68-.18q.15-12.53.29-25V146.26C374.23,99.3,345.8,75.82,312.39,75.82Z"/><path class="cls-2" d="M126.4,75.81,109.64,98,250.26,204V169.14Z"/><path class="cls-2" d="M391.83,134.37v-.15A74.86,74.86,0,0,0,381,95.39a78,78,0,0,0-6.77-9.5,80.71,80.71,0,0,0-27.84-21.45,83.6,83.6,0,0,0-35.58-7.87V39l1.73,0a102.35,102.35,0,0,1,33.85,5.73,101.19,101.19,0,0,1,23.47,11.84c1.48,1,2.95,2.07,4.37,3.16a99.7,99.7,0,0,1,29.28,35.66,97.16,97.16,0,0,1,9.74,39Z"/><path class="cls-2" d="M432.35,134.37v-.15a111.89,111.89,0,0,0-6.92-38.83,115.56,115.56,0,0,0-24-38.82,121.07,121.07,0,0,0-27.17-21.73,123.22,123.22,0,0,0-27.84-12,126.27,126.27,0,0,0-35.58-5.07V0a145.64,145.64,0,0,1,35.58,4.38,143.37,143.37,0,0,1,27.84,10.18c2.07,1,4.12,2.08,6.13,3.19a138.68,138.68,0,0,1,44.55,38.82,131.55,131.55,0,0,1,19.84,38.82,129.06,129.06,0,0,1,6,39Z"/></g></g></svg>