<svg id="Layer_1" data-name="Layer 1" xmlns="http://www.w3.org/2000/svg" viewBox="0 0 1200 1200"><defs><style>.cls-1{fill:#f2f2ff;}.cls-2{fill:#3e00ff;}</style></defs><path class="cls-1" d="M682.18,893.29h22.93l37.57,86.79H723.34l-9.18-21.45H673.25l-9.17,21.45H644.61Zm25,49-13.39-31.49h-.12l-13.39,31.49Z"/><path class="cls-1" d="M742.67,936.56c0-26,18.6-44.38,44.76-44.38,15.62,0,28.64,6.57,36.57,17.35l-14.13,14c-4.22-7.93-12.28-12.89-22.44-12.89-14.88,0-25.42,10.78-25.42,25.91s10.54,26,25.42,26c10.16,0,18.35-5,22.56-13l14,14c-7.93,10.91-20.83,17.48-36.57,17.48C761.27,981.07,742.67,962.59,742.67,936.56Z"/><path class="cls-1" d="M836.39,936.56c0-26,18.6-44.38,44.76-44.38,15.62,0,28.64,6.57,36.57,17.35l-14.13,14c-4.22-7.93-12.28-12.89-22.44-12.89-14.88,0-25.42,10.78-25.42,25.91s10.54,26,25.42,26c10.16,0,18.35-5,22.56-13l14,14c-7.93,10.91-20.82,17.48-36.57,17.48C855,981.07,836.39,962.59,836.39,936.56Z"/><path class="cls-1" d="M932.59,893.29h34l24.3,70.3h2.6l24.43-70.3h34V980h-18.48V909.78h-2.23l-24.42,70.3h-29l-24.42-70.3h-2.24v70.3H932.59Z"/><path class="cls-1" d="M1104.29,893.29h22.94l37.56,86.79h-19.34l-9.17-21.45h-40.92l-9.17,21.45h-19.47Zm25,49-13.39-31.49h-.12l-13.39,31.49Z"/><path class="cls-2" d="M564.53,347l69.3,51.52V857.18H565.29l.27-336.6L402.32,434.87l-.81,422.31H333V602.51L169.2,469.4V857.18H100.66V426.47L55.21,391.12,96.75,347,333,523.14V398.47L565.56,520.58Q565.05,433.76,564.53,347Z"/><path class="cls-2" d="M824.23,347c-83.69,0-153,57.8-153,173.41v56.32l68.54,51.65v-108c0-80.64,38.23-110.61,84.41-110.61,45.45,0,83.69,30,83.69,110.61V755L908,856.84l18.59,0,49.83-61.71H739.82v-81L671.28,662.5V857.18l304.46-.44.72-61.64V520.36C976.46,404.75,906.48,347,824.23,347Z"/><path class="cls-1" d="M366.36,346.91l-41.25,54.74L671.28,662.5V576.68Z"/><path class="cls-1" d="M1019.8,491.08v-.38a184.16,184.16,0,0,0-26.68-95.57,190.81,190.81,0,0,0-16.66-23.39,198.57,198.57,0,0,0-68.53-52.81,205.55,205.55,0,0,0-87.59-19.37V256.35c1.42,0,2.84,0,4.26,0a249.94,249.94,0,0,1,141.1,43.25c3.65,2.49,7.25,5.09,10.76,7.76a245.51,245.51,0,0,1,72.08,87.81,239.09,239.09,0,0,1,24,95.95Z"/><path class="cls-1" d="M1119.53,491.08v-.38a275.55,275.55,0,0,0-17-95.57,284.52,284.52,0,0,0-59.16-95.57,298,298,0,0,0-66.89-53.49,303.29,303.29,0,0,0-68.53-29.59A310.71,310.71,0,0,0,820.34,204V160.3a358.55,358.55,0,0,1,87.59,10.79,350.52,350.52,0,0,1,68.53,25.06q7.65,3.73,15.09,7.83a341.65,341.65,0,0,1,109.67,95.58,323.8,323.8,0,0,1,48.84,95.57,318,318,0,0,1,14.73,95.95Z"/></svg>